<?xml version="1.0" standalone="no"?>
<!DOCTYPE svg PUBLIC "-//W3C//DTD SVG 20010904//EN"
 "http://www.w3.org/TR/2001/REC-SVG-20010904/DTD/svg10.dtd">
<svg version="1.0" xmlns="http://www.w3.org/2000/svg"
 width="192.000000pt" height="192.000000pt" viewBox="0 0 192.000000 192.000000"
 preserveAspectRatio="xMidYMid meet">

<g transform="translate(0.000000,192.000000) scale(0.100000,-0.100000)"
fill="#000000" stroke="none">
<path d="M644 1883 c-4 -14 -42 -213 -84 -442 -53 -284 -75 -422 -68 -433 8
-16 28 -18 199 -18 149 0 190 -3 186 -12 -127 -317 -357 -928 -355 -943 2 -13
11 -20 25 -20 30 0 1016 1237 1011 1269 -3 21 -8 21 -240 24 -131 1 -238 5
-238 8 0 4 59 131 130 282 72 152 129 283 128 291 -3 14 -44 16 -345 19 l-343
2 -6 -27z m606 -42 c0 -5 -59 -133 -131 -286 -72 -152 -128 -283 -125 -291 4
-12 43 -14 230 -14 124 0 227 -3 229 -7 3 -6 -750 -963 -786 -999 -9 -9 3 23
167 446 69 178 126 330 126 337 0 27 -43 33 -219 33 -145 0 -181 3 -181 13 0
8 32 184 70 392 39 208 70 380 70 382 0 1 124 3 275 3 156 0 275 -4 275 -9z"/>
<path d="M22 1877 l-22 -23 110 -109 110 -110 22 23 23 22 -111 110 -110 111
-22 -24z"/>
<path d="M1765 1790 l-110 -110 23 -22 22 -23 110 111 111 110 -24 22 -23 22
-109 -110z"/>
<path d="M10 960 l0 -30 155 0 155 0 0 30 0 30 -155 0 -155 0 0 -30z"/>
<path d="M1600 960 l0 -30 155 0 155 0 0 30 0 30 -155 0 -155 0 0 -30z"/>
<path d="M107 202 l-108 -108 24 -22 23 -22 109 110 c107 108 109 109 90 130
-10 11 -21 20 -24 20 -4 0 -55 -49 -114 -108z"/>
<path d="M1675 260 c-19 -21 -17 -22 90 -130 l109 -110 23 22 24 22 -108 108
c-59 59 -110 108 -114 108 -3 0 -14 -9 -24 -20z"/>
</g>
</svg>
